<svg width="423.595703" height="186.041428" viewBox="0 0 423.596 186.041" fill="none" xmlns="http://www.w3.org/2000/svg" xmlns:xlink="http://www.w3.org/1999/xlink">
	<desc>
			Created with Pixso.
	</desc>
	<defs/>
	<path id="矢量 1" d="M418.94 9.58L423.59 11.29L421.62 0L412.83 7.35L417.06 8.9C416.8 9.5 416.53 10.11 416.26 10.72L418.09 11.53C418.38 10.88 418.66 10.23 418.94 9.58ZM414.63 14.3C414.08 15.48 413.5 16.67 412.91 17.86L414.71 18.75Q415.6 16.94 416.44 15.15L414.63 14.3ZM411.06 21.53C410.45 22.71 409.83 23.88 409.19 25.06L410.95 26.01C411.59 24.82 412.22 23.64 412.83 22.45L411.06 21.53ZM407.29 28.52C406.63 29.68 405.96 30.85 405.27 32.03L407 33.04Q408.03 31.27 409.03 29.5L407.29 28.52ZM403.17 35.55L401.1 38.89L402.8 39.95L404.87 36.6L403.17 35.55ZM398.95 42.25C398.21 43.38 397.47 44.51 396.71 45.63L398.37 46.75C399.13 45.62 399.88 44.48 400.63 43.34L398.95 42.25ZM394.42 48.97C393.66 50.05 392.9 51.12 392.13 52.19L393.75 53.36C394.53 52.28 395.3 51.2 396.06 50.11L394.42 48.97ZM389.76 55.42C388.95 56.5 388.13 57.57 387.31 58.64L388.89 59.86Q390.14 58.25 391.36 56.61L389.76 55.42ZM384.81 61.81C383.99 62.85 383.15 63.87 382.31 64.89L383.85 66.17C384.7 65.14 385.54 64.1 386.38 63.06L384.81 61.81ZM379.73 67.95Q378.42 69.49 377.09 70.99L378.58 72.32C379.48 71.31 380.37 70.29 381.25 69.25L379.73 67.95ZM374.38 73.99Q373.03 75.46 371.67 76.9L373.11 78.28Q374.49 76.83 375.85 75.34L374.38 73.99ZM368.88 79.77Q367.46 81.21 366.03 82.6L367.43 84.03C368.39 83.09 369.35 82.14 370.3 81.18L368.88 79.77ZM363.12 85.39Q361.66 86.76 360.18 88.09L361.52 89.58C362.51 88.68 363.5 87.77 364.49 86.85L363.12 85.39ZM357.19 90.74C356.17 91.62 355.15 92.48 354.13 93.33L355.41 94.87Q356.96 93.58 358.5 92.25L357.19 90.74ZM131.21 94.53C129.87 94.52 128.54 94.53 127.21 94.56L127.26 96.56C128.57 96.53 129.88 96.52 131.19 96.53L131.21 94.53ZM139.19 94.81C137.85 94.72 136.51 94.66 135.17 94.61L135.1 96.61C136.42 96.66 137.74 96.72 139.07 96.8L139.19 94.81ZM123.11 94.71C121.76 94.79 120.41 94.88 119.07 94.99L119.24 96.98C120.56 96.87 121.88 96.78 123.21 96.71L123.11 94.71ZM147.34 95.55C145.98 95.39 144.63 95.24 143.28 95.12L143.1 97.11C144.43 97.23 145.77 97.37 147.11 97.53L147.34 95.55ZM115.1 95.38C113.78 95.53 112.46 95.71 111.15 95.9L111.44 97.88C112.73 97.69 114.03 97.52 115.33 97.37L115.1 95.38ZM351.01 95.86C349.96 96.69 348.91 97.51 347.85 98.31L349.06 99.91C350.13 99.09 351.19 98.27 352.25 97.42L351.01 95.86ZM155.16 96.67C153.85 96.45 152.53 96.24 151.23 96.06L150.94 98.04C152.23 98.22 153.53 98.43 154.83 98.65L155.16 96.67ZM107.1 96.56Q105.11 96.91 103.13 97.34L103.55 99.29C104.84 99.02 106.15 98.76 107.46 98.53L107.1 96.56ZM163.18 98.24C161.84 97.94 160.49 97.66 159.15 97.4L158.77 99.36Q160.75 99.75 162.75 100.19L163.18 98.24ZM99.23 98.23C97.93 98.55 96.65 98.89 95.36 99.25L95.9 101.18C97.17 100.82 98.43 100.49 99.71 100.17L99.23 98.23ZM170.9 100.12C169.64 99.78 168.37 99.46 167.11 99.15L166.64 101.09C167.89 101.4 169.13 101.72 170.39 102.05L170.9 100.12ZM91.45 100.42C90.16 100.83 88.89 101.25 87.62 101.7L88.28 103.59C89.53 103.15 90.79 102.73 92.05 102.33L91.45 100.42ZM344.64 100.69C343.55 101.47 342.46 102.24 341.36 102.99L342.5 104.64C343.6 103.88 344.71 103.1 345.81 102.31L344.64 100.69ZM178.61 102.36C177.32 101.95 176.03 101.56 174.74 101.19L174.18 103.11C175.45 103.48 176.73 103.87 178.02 104.27L178.61 102.36ZM83.87 103.09C82.61 103.58 81.37 104.09 80.13 104.62L80.92 106.46C82.14 105.94 83.36 105.44 84.59 104.96L83.87 103.09ZM186.43 104.98C185.12 104.52 183.83 104.07 182.53 103.63L181.89 105.53C183.18 105.96 184.46 106.4 185.75 106.87L186.43 104.98ZM338.04 105.22C336.91 105.96 335.79 106.67 334.66 107.37L335.71 109.07C336.85 108.37 337.99 107.64 339.13 106.9L338.04 105.22ZM76.42 106.28C75.2 106.84 74 107.43 72.8 108.04L73.7 109.82C74.88 109.22 76.07 108.65 77.26 108.09L76.42 106.28ZM193.93 107.83Q192.04 107.07 190.16 106.36L189.45 108.23Q191.31 108.94 193.18 109.69L193.93 107.83ZM201.3 110.93L197.66 109.36L196.87 111.2L200.51 112.77L201.3 110.93ZM331.23 109.42C330.08 110.1 328.92 110.75 327.75 111.39L328.71 113.14C329.89 112.5 331.07 111.83 332.24 111.15L331.23 109.42ZM69.26 109.89C68.07 110.54 66.89 111.21 65.72 111.9L66.73 113.62C67.88 112.94 69.05 112.29 70.22 111.65L69.26 109.89ZM206.86 113.47L205.01 112.6L204.16 114.42L206.02 115.28L207.88 116.14L208.72 114.33L206.86 113.47ZM324.22 113.27C323.02 113.88 321.83 114.47 320.63 115.04L321.49 116.85C322.71 116.27 323.92 115.67 325.13 115.05L324.22 113.27ZM62.26 114C61.13 114.71 60.01 115.44 58.9 116.18L60.01 117.84C61.11 117.11 62.21 116.39 63.32 115.69L62.26 114ZM216.06 117.48C214.84 116.99 213.62 116.48 212.4 115.96L211.61 117.8C212.85 118.33 214.09 118.84 215.32 119.33L216.06 117.48ZM317.01 116.71C315.79 117.25 314.57 117.78 313.34 118.28L314.1 120.13C315.34 119.62 316.58 119.09 317.82 118.54L317.01 116.71ZM55.59 118.48C54.49 119.26 53.4 120.07 52.32 120.89L53.53 122.48C54.59 121.67 55.67 120.88 56.75 120.1L55.59 118.48ZM223.59 120.27C222.32 119.84 221.06 119.39 219.8 118.92L219.1 120.79C220.38 121.27 221.66 121.72 222.94 122.16L223.59 120.27ZM309.62 119.74C308.37 120.21 307.11 120.66 305.85 121.08L306.49 122.98C307.77 122.54 309.05 122.09 310.32 121.61L309.62 119.74ZM231.2 122.65C229.91 122.28 228.63 121.9 227.34 121.5L226.74 123.41C228.05 123.82 229.35 124.2 230.66 124.57L231.2 122.65ZM302.05 122.31C300.78 122.7 299.51 123.07 298.24 123.41L298.76 125.34C300.06 124.99 301.35 124.62 302.64 124.22L302.05 122.31ZM49.15 123.38C48.12 124.21 47.1 125.06 46.08 125.93L47.38 127.45Q48.88 126.17 50.41 124.93L49.15 123.38ZM238.91 124.6C237.63 124.31 236.35 124.01 235.06 123.68L234.57 125.62C235.87 125.95 237.18 126.26 238.48 126.55L238.91 124.6ZM294.37 124.39C293.07 124.7 291.77 124.99 290.46 125.26L290.86 127.22Q292.85 126.81 294.84 126.34L294.37 124.39ZM246.77 126.1C245.47 125.89 244.16 125.66 242.86 125.41L242.48 127.38C243.81 127.63 245.13 127.86 246.46 128.07L246.77 126.1ZM286.5 125.99C285.2 126.21 283.91 126.41 282.6 126.59L282.87 128.57C284.2 128.39 285.51 128.19 286.83 127.97L286.5 125.99ZM254.7 127.11C253.38 126.98 252.05 126.84 250.73 126.67L250.47 128.65C251.82 128.82 253.17 128.97 254.51 129.1L254.7 127.11ZM278.67 127.06C277.35 127.19 276.02 127.3 274.69 127.39L274.83 129.39Q275.55 129.34 276.28 129.28Q277.58 129.18 278.87 129.04L278.67 127.06ZM262.66 127.62Q260.66 127.56 258.65 127.43L258.52 129.42C259.88 129.51 261.24 129.57 262.6 129.62L262.66 127.62ZM270.66 127.6C269.32 127.65 267.98 127.67 266.64 127.68L266.64 129.68C268.01 129.67 269.37 129.65 270.73 129.6L270.66 127.6ZM43.02 128.63C42.03 129.53 41.04 130.44 40.07 131.38L41.45 132.82C42.41 131.9 43.39 131 44.37 130.11L43.02 128.63ZM37.22 134.18C36.27 135.14 35.33 136.12 34.41 137.1L35.87 138.47Q37.24 137.01 38.64 135.59L37.22 134.18ZM31.68 140.1C30.79 141.09 29.92 142.1 29.06 143.12L30.59 144.41C31.44 143.4 32.3 142.41 33.17 141.42L31.68 140.1ZM26.5 146.24C25.65 147.3 24.82 148.37 24 149.45L25.59 150.66C26.4 149.59 27.22 148.54 28.06 147.49L26.5 146.24ZM21.63 152.67C20.84 153.76 20.07 154.86 19.32 155.98L20.97 157.1C21.72 156 22.48 154.91 23.25 153.83L21.63 152.67ZM17.07 159.37C16.35 160.49 15.65 161.62 14.97 162.75L16.68 163.79C17.35 162.67 18.05 161.56 18.75 160.45L17.07 159.37ZM12.91 166.26C12.23 167.44 11.58 168.62 10.95 169.81L12.71 170.75Q13.65 169 14.65 167.24L12.91 166.26ZM9.14 173.31C8.52 174.56 7.93 175.81 7.35 177.05L9.17 177.89C9.74 176.66 10.32 175.43 10.93 174.2L9.14 173.31ZM11.13 186.04L11.88 184.18L7.25 182.32L7.59 181.48L5.74 180.72L5.39 181.58L0.74 179.71L0 181.57L11.13 186.04Z" fill="#C5C5C5" fill-opacity="1.000000" fill-rule="evenodd"/>
</svg>
